<svg width="16" height="16" viewBox="0 0 16 16" fill="none" xmlns="http://www.w3.org/2000/svg">
<path d="M14.6668 1.99992V13.9999C14.6668 14.1767 14.5966 14.3463 14.4716 14.4713C14.3465 14.5963 14.177 14.6666 14.0002 14.6666H10.5335V9.50325H12.2668L12.5268 7.49125H10.5335V6.20592C10.5335 5.62325 10.6948 5.22659 11.5335 5.22659H12.6002V3.42659C12.0844 3.37182 11.5661 3.34534 11.0475 3.34725C10.6945 3.32095 10.3401 3.37227 10.0091 3.49758C9.6781 3.6229 9.37856 3.81918 9.13152 4.07264C8.88448 4.3261 8.69594 4.63058 8.57915 4.96468C8.46236 5.29879 8.42016 5.65442 8.4555 6.00659V7.49125H6.7175V9.50325H8.4555V14.6666H2.00016C1.82335 14.6666 1.65378 14.5963 1.52876 14.4713C1.40373 14.3463 1.3335 14.1767 1.3335 13.9999V1.99992C1.3335 1.82311 1.40373 1.65354 1.52876 1.52851C1.65378 1.40349 1.82335 1.33325 2.00016 1.33325H14.0002C14.177 1.33325 14.3465 1.40349 14.4716 1.52851C14.5966 1.65354 14.6668 1.82311 14.6668 1.99992Z" fill="white"/>
</svg>
