<svg width="16" height="16" viewBox="0 0 16 16" fill="none" xmlns="http://www.w3.org/2000/svg">
<path d="M8.00016 4.57658C7.32309 4.57658 6.66122 4.77736 6.09826 5.15352C5.5353 5.52968 5.09652 6.06433 4.83741 6.68987C4.57831 7.3154 4.51052 8.00372 4.64261 8.66778C4.7747 9.33184 5.10074 9.94182 5.5795 10.4206C6.05826 10.8993 6.66824 11.2254 7.3323 11.3575C7.99636 11.4896 8.68468 11.4218 9.31022 11.1627C9.93575 10.9036 10.4704 10.4648 10.8466 9.90182C11.2227 9.33886 11.4235 8.67699 11.4235 7.99992C11.4235 7.09199 11.0628 6.22126 10.4208 5.57926C9.77882 4.93726 8.90809 4.57658 8.00016 4.57658V4.57658ZM8.00016 10.2226C7.56056 10.2226 7.13083 10.0922 6.76532 9.848C6.3998 9.60377 6.11491 9.25664 5.94669 8.8505C5.77846 8.44436 5.73444 7.99745 5.8202 7.5663C5.90597 7.13514 6.11765 6.7391 6.4285 6.42826C6.73935 6.11741 7.13539 5.90572 7.56654 5.81996C7.9977 5.7342 8.4446 5.77821 8.85074 5.94644C9.25688 6.11467 9.60401 6.39956 9.84824 6.76507C10.0925 7.13059 10.2228 7.56032 10.2228 7.99992C10.2228 8.58941 9.98866 9.15475 9.57183 9.57158C9.15499 9.98841 8.58965 10.2226 8.00016 10.2226V10.2226ZM12.3595 4.44125C12.3595 4.59948 12.3126 4.75415 12.2247 4.88571C12.1368 5.01727 12.0118 5.11981 11.8656 5.18036C11.7195 5.24091 11.5586 5.25675 11.4034 5.22588C11.2482 5.19501 11.1057 5.11882 10.9938 5.00694C10.8819 4.89506 10.8057 4.75251 10.7749 4.59732C10.744 4.44214 10.7598 4.28129 10.8204 4.1351C10.8809 3.98892 10.9835 3.86398 11.115 3.77608C11.2466 3.68817 11.4013 3.64125 11.5595 3.64125V3.64125C11.6646 3.64125 11.7686 3.66194 11.8656 3.70215C11.9627 3.74235 12.0509 3.80128 12.1252 3.87557C12.1995 3.94985 12.2584 4.03804 12.2986 4.1351C12.3388 4.23217 12.3595 4.33619 12.3595 4.44125V4.44125ZM14.3175 3.63325C14.1498 3.18834 13.8872 2.78524 13.5482 2.45192C13.2155 2.11285 12.8128 1.85052 12.3682 1.68325C11.8501 1.4891 11.3027 1.3845 10.7495 1.37392C10.0388 1.34125 9.8115 1.33325 8.00016 1.33325C6.18883 1.33325 5.96216 1.34059 5.25083 1.37392C4.69787 1.38468 4.15076 1.48927 3.63283 1.68325C3.18829 1.85063 2.7856 2.11295 2.45283 2.45192C2.11316 2.78476 1.85055 3.188 1.6835 3.63325C1.48959 4.1512 1.385 4.6983 1.37416 5.25125C1.34083 5.96192 1.3335 6.18925 1.3335 7.99992C1.3335 9.81058 1.34083 10.0379 1.37416 10.7486C1.385 11.3015 1.48959 11.8486 1.6835 12.3666C1.85055 12.8118 2.11316 13.2151 2.45283 13.5479C2.786 13.8867 3.18886 14.149 3.6335 14.3166C4.15146 14.5104 4.69855 14.615 5.2515 14.6259C5.96283 14.6586 6.19016 14.6666 8.00016 14.6666C9.81016 14.6666 10.0382 14.6593 10.7488 14.6259C11.302 14.6151 11.8493 14.5105 12.3675 14.3166C12.8104 14.1453 13.2127 13.8834 13.5485 13.5476C13.8843 13.2118 14.1462 12.8095 14.3175 12.3666C14.5117 11.8487 14.6163 11.3016 14.6268 10.7486C14.6595 10.0373 14.6668 9.81058 14.6668 7.99992C14.6668 6.18925 14.6595 5.96192 14.6268 5.25125C14.6161 4.69829 14.5115 4.15118 14.3175 3.63325V3.63325ZM13.4275 10.6939C13.4235 11.117 13.3466 11.5363 13.2002 11.9333C13.0893 12.2212 12.9193 12.4827 12.7011 12.7009C12.483 12.9191 12.2215 13.0891 11.9335 13.1999C11.537 13.3466 11.1182 13.4241 10.6955 13.4293C9.99283 13.4613 9.7815 13.4679 8.00083 13.4679C6.22016 13.4679 6.01016 13.4613 5.3075 13.4293C4.88386 13.4245 4.46419 13.3469 4.06683 13.1999C3.77724 13.093 3.51527 12.9226 3.30016 12.7013C3.07863 12.4863 2.90821 12.2243 2.8015 11.9346C2.65416 11.5382 2.57657 11.1194 2.57216 10.6966C2.5415 9.99125 2.5335 9.78058 2.5335 7.99992C2.5335 6.21925 2.54016 6.00925 2.57216 5.30592C2.57783 4.88262 2.65608 4.46343 2.8035 4.06659C2.91038 3.777 3.08077 3.51503 3.30216 3.29992C3.51615 3.0778 3.77754 2.90688 4.06683 2.79992C4.46396 2.65327 4.8835 2.57658 5.30683 2.57325C6.0095 2.54059 6.22083 2.53325 8.00016 2.53325C9.7795 2.53325 9.9915 2.54059 10.6948 2.57259C11.1177 2.57705 11.5366 2.65394 11.9335 2.79992C12.2215 2.91076 12.483 3.08076 12.7011 3.29894C12.9193 3.51712 13.0893 3.77863 13.2002 4.06659C13.3475 4.46292 13.4251 4.88177 13.4295 5.30458C13.4602 6.00925 13.4668 6.21992 13.4668 7.99992C13.4668 9.77992 13.4602 9.99059 13.4275 10.6939Z" fill="white"/>
</svg>
