<svg width="16" height="16" viewBox="0 0 16 16" fill="none" xmlns="http://www.w3.org/2000/svg">
<path d="M14.0002 1.33325H2.00016C1.82335 1.33325 1.65378 1.40349 1.52876 1.52851C1.40373 1.65354 1.3335 1.82311 1.3335 1.99992V13.9999C1.3335 14.1767 1.40373 14.3463 1.52876 14.4713C1.65378 14.5963 1.82335 14.6666 2.00016 14.6666H14.0002C14.177 14.6666 14.3465 14.5963 14.4716 14.4713C14.5966 14.3463 14.6668 14.1767 14.6668 13.9999V1.99992C14.6668 1.82311 14.5966 1.65354 14.4716 1.52851C14.3465 1.40349 14.177 1.33325 14.0002 1.33325V1.33325ZM5.3855 12.4913H3.39016V6.49125H5.3855V12.4913ZM4.38816 5.66659H4.37483C4.23077 5.67788 4.08594 5.65904 3.94958 5.61125C3.81321 5.56346 3.68829 5.48778 3.5828 5.38904C3.47731 5.29029 3.39355 5.17064 3.33687 5.03773C3.28019 4.90481 3.25182 4.76154 3.25359 4.61705C3.25536 4.47256 3.28722 4.33003 3.34713 4.19854C3.40705 4.06705 3.49371 3.94948 3.60158 3.85335C3.70946 3.75721 3.83619 3.68461 3.97368 3.64017C4.11118 3.59573 4.25643 3.58043 4.40016 3.59525C4.54419 3.58293 4.68921 3.60077 4.82595 3.64763C4.9627 3.69449 5.08818 3.76935 5.19438 3.86742C5.30058 3.96549 5.38517 4.08462 5.44274 4.21721C5.50032 4.3498 5.52963 4.49294 5.52879 4.63749C5.52796 4.78204 5.49699 4.92483 5.43788 5.05675C5.37877 5.18866 5.29281 5.30681 5.18548 5.40364C5.07815 5.50047 4.95181 5.57387 4.81453 5.61914C4.67725 5.66442 4.53204 5.68057 4.38816 5.66659V5.66659ZM12.5802 12.4913H10.5848V9.28058C10.5848 8.47325 10.2962 7.92325 9.57416 7.92325C9.34922 7.92453 9.13017 7.99529 8.94699 8.12585C8.76381 8.2564 8.62544 8.44037 8.55083 8.65258C8.49905 8.8096 8.47646 8.97477 8.48416 9.13992V12.4913H6.4895C6.4895 12.4913 6.51616 7.05125 6.4895 6.49125H8.48416V7.33992C8.66468 7.02567 8.92798 6.767 9.24537 6.59208C9.56276 6.41716 9.92208 6.33271 10.2842 6.34792C11.5968 6.34792 12.5815 7.20592 12.5815 9.04992L12.5802 12.4913Z" fill="white"/>
</svg>
