<svg width="16" height="16" viewBox="0 0 16 16" fill="none" xmlns="http://www.w3.org/2000/svg">
<path d="M13.0955 4.29479C13.6377 4.23138 14.1674 4.08711 14.6668 3.86679C14.2989 4.4167 13.8361 4.89683 13.3002 5.28479C13.3062 5.40212 13.3088 5.51945 13.3088 5.63812C13.3156 6.66191 13.1188 7.67684 12.7301 8.62397C12.3413 9.57109 11.7683 10.4316 11.0442 11.1554C10.3201 11.8792 9.45947 12.452 8.51221 12.8404C7.56494 13.2288 6.54995 13.4252 5.52616 13.4181C4.03957 13.4193 2.58406 12.9926 1.3335 12.1888C1.5501 12.2145 1.76804 12.2274 1.98616 12.2275C3.21892 12.2302 4.41665 11.8175 5.38616 11.0561C4.8155 11.0453 4.26248 10.8564 3.80444 10.5159C3.34639 10.1753 3.00622 9.70015 2.8315 9.15679C3.00142 9.18872 3.17394 9.20478 3.34683 9.20479C3.59 9.20518 3.83214 9.17312 4.06683 9.10945C3.44733 8.98476 2.89007 8.64952 2.48966 8.16064C2.08925 7.67176 1.87036 7.05938 1.87016 6.42745V6.39279C2.24978 6.60415 2.67454 6.72143 3.10883 6.73479C2.5298 6.34781 2.12 5.75474 1.96283 5.07627C1.80566 4.39781 1.91294 3.68495 2.26283 3.08279C2.94953 3.92785 3.8063 4.61901 4.77751 5.11139C5.74872 5.60377 6.81263 5.88635 7.90016 5.94079C7.85345 5.7363 7.82997 5.5272 7.83016 5.31745C7.82837 4.76784 7.99231 4.23046 8.30058 3.77543C8.60885 3.32041 9.04714 2.9689 9.55823 2.76676C10.0693 2.56463 10.6295 2.52127 11.1656 2.64234C11.7017 2.76341 12.1889 3.04329 12.5635 3.44545C13.1765 3.32415 13.7641 3.09866 14.3008 2.77879C14.0967 3.41386 13.6682 3.9528 13.0955 4.29479V4.29479Z" fill="white"/>
</svg>
