<svg width="16" height="16" viewBox="0 0 16 16" fill="none" xmlns="http://www.w3.org/2000/svg">
<path d="M10.7428 6.19394C11.1108 5.82594 11.4761 4.96727 9.94277 6.00994C7.76411 7.51327 5.61677 8.92461 5.61677 8.92461C5.39573 9.02456 5.15677 9.0788 4.91424 9.08407C4.67171 9.08934 4.43061 9.04553 4.20544 8.95527C3.28544 8.67927 2.21144 8.31127 2.21144 8.31127C2.21144 8.31127 1.47811 7.85061 2.73344 7.35994C2.73344 7.35994 8.04077 5.18194 9.88144 4.41461C10.5868 4.10794 12.9794 3.12661 12.9794 3.12661C12.9794 3.12661 14.0841 2.69661 13.9921 3.73994C13.9614 4.16927 13.7161 5.67327 13.4708 7.29861C13.1021 9.59927 12.7034 12.1153 12.7034 12.1153C12.7034 12.1153 12.6421 12.8206 12.1208 12.9433C11.5627 12.9338 11.0235 12.7397 10.5874 12.3913C10.4648 12.2993 8.28677 10.9186 7.48877 10.2439C7.4076 10.189 7.34165 10.1143 7.29707 10.027C7.25248 9.93968 7.2307 9.8425 7.23376 9.7445C7.23682 9.6465 7.26462 9.55087 7.31457 9.46649C7.36452 9.38212 7.43499 9.31176 7.51944 9.26194C8.62611 8.24994 9.94544 6.99194 10.7428 6.19394Z" fill="white"/>
</svg>
