<svg width="80" height="80" viewBox="0 0 80 80" fill="none" xmlns="http://www.w3.org/2000/svg">
<circle cx="40" cy="40" r="40" fill="#4DAAEC"/>
<path d="M47 22.5C47.9283 22.5 48.8185 22.8687 49.4749 23.5251C50.1312 24.1815 50.5 25.0717 50.5 26H26V45.5598C25.0717 45.5598 24.1815 45.191 23.5251 44.5346C22.8687 43.8782 22.5 42.988 22.5 42.0598V26C22.5 25.0717 22.8687 24.1815 23.5251 23.5251C24.1815 22.8687 25.0717 22.5 26 22.5H47Z" fill="#F8F8F8"/>
<path d="M43.5 57.5L38.8327 52.5597H33C32.0717 52.5597 31.1815 52.191 30.5251 51.5346C29.8687 50.8782 29.5 49.988 29.5 49.0597V33C29.5 32.0717 29.8687 31.1815 30.5251 30.5251C31.1815 29.8687 32.0717 29.5 33 29.5H54C54.9283 29.5 55.8185 29.8687 56.4749 30.5251C57.1312 31.1815 57.5 32.0717 57.5 33V49.0597C57.5 49.988 57.1312 50.8782 56.4749 51.5346C55.8185 52.191 54.9283 52.5597 54 52.5597H48.1672L43.5 57.5ZM46.6587 49.0597H54V33H33V49.0597H40.3412L43.5 52.4022L46.6587 49.0597Z" fill="#F8F8F8"/>
</svg>
