<svg width="80" height="80" viewBox="0 0 80 80" fill="none" xmlns="http://www.w3.org/2000/svg">
<circle cx="40" cy="40" r="40" fill="#4DAAEC"/>
<path d="M27.0059 27.0062C27.4981 26.5141 28.1657 26.2377 28.8617 26.2377C29.5578 26.2377 30.2254 26.5141 30.7176 27.0062L39.9996 36.2882L49.2816 27.0062C49.7767 26.5281 50.4398 26.2635 51.128 26.2695C51.8163 26.2754 52.4747 26.5515 52.9614 27.0382C53.4481 27.5249 53.7242 28.1833 53.7301 28.8716C53.7361 29.5598 53.4715 30.2229 52.9934 30.718L43.7114 40L52.9934 49.282C53.4715 49.7771 53.7361 50.4401 53.7301 51.1284C53.7242 51.8167 53.4481 52.4751 52.9614 52.9618C52.4747 53.4485 51.8163 53.7245 51.128 53.7305C50.4398 53.7365 49.7767 53.4719 49.2816 52.9937L39.9996 43.7117L30.7176 52.9937C30.2225 53.4719 29.5595 53.7365 28.8712 53.7305C28.1829 53.7245 27.5245 53.4485 27.0378 52.9618C26.5511 52.4751 26.2751 51.8167 26.2691 51.1284C26.2631 50.4401 26.5277 49.7771 27.0059 49.282L36.2879 40L27.0059 30.718C26.5138 30.2257 26.2373 29.5582 26.2373 28.8621C26.2373 28.1661 26.5138 27.4985 27.0059 27.0062Z" fill="white"/>
</svg>
