<svg width="26" height="26" viewBox="0 0 26 26" fill="none" xmlns="http://www.w3.org/2000/svg">
<circle opacity="0.5" cx="13" cy="13" r="13" fill="#00AAFF"/>
<path d="M17.55 8.125H8.45C7.93283 8.125 7.43684 8.31761 7.07114 8.66045C6.70545 9.00329 6.5 9.46828 6.5 9.95312V16.0469C6.5 16.5317 6.70545 16.9967 7.07114 17.3396C7.43684 17.6824 7.93283 17.875 8.45 17.875H17.55C18.0672 17.875 18.5632 17.6824 18.9289 17.3396C19.2946 16.9967 19.5 16.5317 19.5 16.0469V9.95312C19.5 9.46828 19.2946 9.00329 18.9289 8.66045C18.5632 8.31761 18.0672 8.125 17.55 8.125ZM17.55 9.75L13.325 13.7309C13.2262 13.7843 13.1141 13.8125 13 13.8125C12.8859 13.8125 12.7738 13.7843 12.675 13.7309L8.45 9.75H17.55Z" fill="white"/>
</svg>
