<svg width="16" height="16" viewBox="0 0 16 16" fill="none" xmlns="http://www.w3.org/2000/svg">
<g clip-path="url(#clip0_43_32)">
<path d="M15.1998 5.6358V12.0501C15.1998 12.6468 14.9628 13.2191 14.5408 13.6411C14.1188 14.063 13.5465 14.3001 12.9498 14.3001H3.0498C2.45307 14.3001 1.88077 14.063 1.45881 13.6411C1.03686 13.2191 0.799805 12.6468 0.799805 12.0501V5.6358L7.7712 9.738C7.84046 9.77884 7.9194 9.80039 7.9998 9.80039C8.08021 9.80039 8.15915 9.77884 8.2284 9.738L15.1998 5.6358ZM12.9498 2.6001C13.5034 2.60001 14.0377 2.80404 14.4503 3.17316C14.8629 3.54228 15.125 4.05057 15.1863 4.6008L8.50682 8.52986C8.19387 8.71394 7.80574 8.71394 7.49279 8.52986L0.813305 4.6008C0.874647 4.05057 1.1367 3.54228 1.54932 3.17316C1.96194 2.80404 2.49617 2.60001 3.0498 2.6001H12.9498Z" fill="white"/>
</g>
<defs>
<clipPath id="clip0_43_32">
<rect width="16" height="16" fill="white"/>
</clipPath>
</defs>
</svg>
