<svg width="26" height="26" viewBox="0 0 26 26" fill="none" xmlns="http://www.w3.org/2000/svg">
<circle opacity="0.5" cx="13" cy="13" r="13" fill="#00AAFF"/>
<path fill-rule="evenodd" clip-rule="evenodd" d="M7.25078 11.1109C7.53319 8.18055 9.97768 5.88485 12.9202 5.7816C16.2787 5.66317 19.039 8.3506 19.039 11.6848C19.039 12.0675 19.0026 12.441 18.9327 12.8054C18.9327 12.8054 18.9206 12.8722 18.8933 12.9906C18.8022 13.4005 18.6686 13.7923 18.4955 14.1627C17.9003 15.5717 16.5308 17.9191 13.4577 20.4698C13.2664 20.6277 12.99 20.6277 12.8018 20.4698C9.72868 17.916 8.35915 15.5687 7.76701 14.1658C7.59695 13.7953 7.46031 13.4005 7.36921 12.9936C7.33884 12.8722 7.32973 12.8084 7.32973 12.8084C7.22648 12.2648 7.19308 11.697 7.25078 11.1109ZM13.0004 13.8124C11.654 13.8124 10.5629 12.7213 10.5629 11.3749C10.5629 10.0284 11.654 8.93738 13.0004 8.93738C14.3468 8.93738 15.4379 10.0284 15.4379 11.3749C15.4379 12.7213 14.3468 13.8124 13.0004 13.8124Z" fill="white"/>
</svg>
