<svg width="26" height="26" viewBox="0 0 26 26" fill="none" xmlns="http://www.w3.org/2000/svg">
<circle opacity="0.5" cx="13" cy="13" r="13" fill="#00AAFF"/>
<path d="M17.4333 14.6322C16.9634 14.1684 16.3769 14.1684 15.91 14.6322C15.5539 14.9853 15.1978 15.3384 14.8477 15.6975C14.7519 15.7963 14.6711 15.8172 14.5544 15.7514C14.324 15.6257 14.0786 15.5239 13.8572 15.3863C12.8247 14.7369 11.9599 13.902 11.1938 12.9624C10.8137 12.4956 10.4756 11.9958 10.2391 11.4332C10.1913 11.3195 10.2002 11.2447 10.293 11.1519C10.6491 10.8078 10.9963 10.4547 11.3464 10.1016C11.8342 9.61081 11.8342 9.03625 11.3434 8.5425C11.0651 8.2612 10.7868 7.9859 10.5085 7.7046C10.2212 7.41732 9.9369 7.12705 9.64662 6.84277C9.17679 6.38492 8.59025 6.38492 8.12341 6.84576C7.7643 7.19887 7.42016 7.56096 7.05507 7.90809C6.71691 8.22829 6.54633 8.6203 6.51042 9.07815C6.45356 9.82328 6.63611 10.5265 6.89347 11.2118C7.42016 12.6302 8.22216 13.8901 9.19475 15.0451C10.5085 16.6072 12.0766 17.8431 13.911 18.7349C14.737 19.1359 15.5928 19.4441 16.5235 19.495C17.1639 19.5309 17.7205 19.3693 18.1664 18.8695C18.4717 18.5284 18.8158 18.2172 19.139 17.891C19.6178 17.4062 19.6208 16.8197 19.145 16.3409C18.5764 15.7693 18.0048 15.2008 17.4333 14.6322Z" fill="white"/>
</svg>
