<svg width="80" height="80" viewBox="0 0 80 80" fill="none" xmlns="http://www.w3.org/2000/svg">
<circle cx="40" cy="40" r="40" fill="#5569C3"/>
<g clip-path="url(#clip0_86_89)">
<path fill-rule="evenodd" clip-rule="evenodd" d="M51.6096 26.7525C52.0421 26.5705 52.5154 26.5077 52.9804 26.5707C53.4453 26.6337 53.8849 26.8202 54.2533 27.1107C54.6218 27.4012 54.9056 27.7852 55.0753 28.2226C55.245 28.6601 55.2943 29.135 55.2181 29.598L51.2491 53.6728C50.8641 55.995 48.3161 57.3267 46.1864 56.17C44.4049 55.2023 41.7589 53.7113 39.3789 52.1555C38.1889 51.3767 34.5436 48.883 34.9916 47.1085C35.3766 45.5913 41.5016 39.8898 45.0016 36.5C46.3754 35.1683 45.7489 34.4 44.1266 35.625C40.0964 38.6665 33.6301 43.2918 31.4916 44.5938C29.6051 45.7418 28.6216 45.9378 27.4456 45.7418C25.3001 45.3848 23.3104 44.8318 21.6864 44.158C19.4919 43.248 19.5986 40.231 21.6846 39.3525L51.6096 26.7525Z" fill="white"/>
</g>
<defs>
<clipPath id="clip0_86_89">
<rect width="42" height="42" fill="white" transform="translate(17 19)"/>
</clipPath>
</defs>
</svg>
