<svg width="80" height="80" viewBox="0 0 80 80" fill="none" xmlns="http://www.w3.org/2000/svg">
<circle cx="40" cy="40" r="40" fill="#7AE37D"/>
<g clip-path="url(#clip0_86_90)">
<path fill-rule="evenodd" clip-rule="evenodd" d="M49.4763 44.1685C48.9548 43.9078 46.398 42.6513 45.922 42.4763C45.446 42.303 45.0995 42.2173 44.7513 42.7388C44.4048 43.2568 43.409 44.4293 43.1062 44.7758C42.8018 45.124 42.499 45.166 41.9792 44.907C41.4595 44.6445 39.783 44.0968 37.7968 42.3258C36.2515 40.9468 35.2068 39.244 34.904 38.7225C34.6013 38.2028 34.8708 37.921 35.1315 37.662C35.366 37.4293 35.6512 37.0548 35.912 36.752C36.1727 36.4475 36.2585 36.2305 36.4318 35.8823C36.6068 35.5358 36.5192 35.233 36.388 34.9723C36.2585 34.7115 35.219 32.1513 34.785 31.11C34.3633 30.0968 33.9345 30.235 33.616 30.2175C33.3115 30.2035 32.965 30.2 32.6185 30.2C32.272 30.2 31.7085 30.3295 31.2325 30.851C30.7547 31.3708 29.4125 32.629 29.4125 35.1893C29.4125 37.7478 31.2745 40.2205 31.5352 40.5688C31.796 40.9153 35.2015 46.1688 40.4183 48.421C41.6608 48.9565 42.6285 49.2768 43.3827 49.5148C44.6287 49.912 45.7628 49.856 46.6588 49.7213C47.6562 49.5725 49.7353 48.463 50.1693 47.2485C50.6015 46.034 50.6015 44.9928 50.472 44.7758C50.3425 44.5588 49.996 44.4293 49.4745 44.1685H49.4763ZM39.9878 57.1238H39.9808C36.8823 57.1243 33.8407 56.2914 31.1747 54.7123L30.5448 54.3378L23.9963 56.0563L25.7445 49.6723L25.3333 49.0178C23.601 46.2604 22.6843 43.0691 22.689 39.8128C22.6925 30.2753 30.452 22.5158 39.9947 22.5158C44.6147 22.5158 48.9583 24.3183 52.2238 27.5873C53.8344 29.1913 55.111 31.0988 55.9797 33.1993C56.8484 35.2999 57.292 37.5519 57.2848 39.825C57.2812 49.3625 49.5217 57.1238 39.9878 57.1238ZM54.7088 25.104C52.7806 23.1631 50.4864 21.6242 47.9592 20.5764C45.4319 19.5286 42.7218 18.9928 39.986 19C28.5165 19 19.1785 28.3363 19.175 39.811C19.1697 43.4628 20.1277 47.0514 21.9523 50.2148L19 61L30.032 58.1055C33.0838 59.7682 36.5037 60.6394 39.979 60.6395H39.9878C51.4572 60.6395 60.7952 51.3033 60.7988 39.8268C60.8072 37.092 60.2733 34.3827 59.228 31.8556C58.1827 29.3285 56.6466 27.0337 54.7088 25.104Z" fill="white"/>
</g>
<defs>
<clipPath id="clip0_86_90">
<rect width="42" height="42" fill="white" transform="translate(19 19)"/>
</clipPath>
</defs>
</svg>
